<svg width="256" height="256" viewBox="0 0 256 256" fill="none" xmlns="http://www.w3.org/2000/svg">
<rect width="256" height="256" fill="#F2F2F7"/>
<g clip-path="url(#clip0_942_43099)">
<path d="M167.502 102.879C148.915 92.4826 119.083 75.7891 72.8103 49.88C69.6906 47.8197 66.1013 47.5497 63 48.5994L142.391 127.99L167.502 102.879Z" fill="#32BBFF"/>
<path d="M62.9728 48.625C62.3916 48.8219 61.826 49.0594 61.285 49.3463C57.8603 51.1988 55.3438 54.7634 55.3438 59.2719V196.76C55.3438 201.268 57.86 204.833 61.285 206.685C61.825 206.972 62.3903 207.21 62.971 207.408L142.364 128.016L62.9728 48.625Z" fill="#32BBFF"/>
<path d="M142.393 128L63 207.392C66.1022 208.45 69.6916 208.2 72.8122 206.11C117.687 180.982 147.183 164.486 165.985 154.002C166.508 153.708 167.021 153.42 167.528 153.136L142.393 128Z" fill="#32BBFF"/>
<path d="M55.3438 128V196.744C55.3438 201.252 57.86 204.817 61.285 206.669C61.825 206.956 62.3903 207.194 62.971 207.392L142.364 128H55.3438Z" fill="#2C9FD9"/>
<path d="M72.7794 49.8837C69.0747 47.4375 64.7059 47.5072 61.2812 49.3247L141.155 129.199L167.471 102.882C148.885 92.4863 119.052 75.7928 72.7794 49.8837Z" fill="#29CC5E"/>
<path d="M141.155 126.75L61.2812 206.624C64.7063 208.441 69.0747 208.546 72.7794 206.065C117.654 180.936 147.15 164.441 165.952 153.956C166.476 153.662 166.988 153.375 167.495 153.09L141.155 126.75Z" fill="#D93F21"/>
<path d="M200.702 128.038C200.702 124.229 198.78 120.385 194.97 118.253C194.97 118.253 187.846 114.278 166.007 102.062L140.031 128.038L166.033 154.04C187.631 141.913 194.97 137.824 194.97 137.824C198.78 135.692 200.702 131.848 200.702 128.038Z" fill="#FFD500"/>
<path d="M194.97 137.786C198.78 135.654 200.702 131.809 200.702 128H140.031L166.033 154.002C187.632 141.875 194.97 137.786 194.97 137.786Z" fill="#FFAA00"/>
</g>
<defs>
<clipPath id="clip0_942_43099">
<rect width="160" height="160" fill="white" transform="translate(48 48)"/>
</clipPath>
</defs>
</svg>
