<svg width="30" height="30" viewBox="0 0 30 30" fill="none" xmlns="http://www.w3.org/2000/svg">
<path fill-rule="evenodd" clip-rule="evenodd" d="M14.4989 4C8.14939 4 3 9.14869 3 15.5004C3 20.5813 6.29479 24.8912 10.8646 26.4119C11.4399 26.5178 11.6496 26.1627 11.6496 25.8577C11.6496 25.5852 11.6397 24.8616 11.6341 23.9022C8.43531 24.5969 7.7604 22.3603 7.7604 22.3603C7.23727 21.0317 6.48328 20.678 6.48328 20.678C5.43914 19.9649 6.56235 19.9791 6.56235 19.9791C7.71662 20.0603 8.32376 21.1644 8.32376 21.1644C9.34954 22.9216 11.0157 22.414 11.6708 22.1196C11.7753 21.3769 12.0725 20.87 12.4008 20.5827C9.84726 20.2925 7.16243 19.3056 7.16243 14.8989C7.16243 13.6436 7.61073 12.6164 8.34636 11.813C8.22775 11.5222 7.8331 10.3524 8.45931 8.76957C8.45931 8.76957 9.42438 8.46036 11.6214 9.94856C12.5384 9.69299 13.5226 9.56592 14.5004 9.56097C15.4774 9.56592 16.4608 9.69299 17.3793 9.94856C19.5749 8.46036 20.5386 8.76957 20.5386 8.76957C21.1662 10.3524 20.7715 11.5222 20.6536 11.813C21.3907 12.6164 21.8354 13.6436 21.8354 14.8989C21.8354 19.3169 19.1464 20.289 16.5851 20.5735C16.9974 20.9286 17.3652 21.6303 17.3652 22.7034C17.3652 24.2403 17.3511 25.4807 17.3511 25.8577C17.3511 26.1655 17.5586 26.5235 18.1418 26.4112C22.708 24.887 26 20.5799 26 15.5004C26 9.14869 20.8506 4 14.4989 4Z" fill="black"/>
</svg>
