<svg width="256" height="256" viewBox="0 0 256 256" fill="none" xmlns="http://www.w3.org/2000/svg">
<rect width="256" height="256" fill="url(#paint0_linear_942_43085)"/>
<path d="M127.234 52.425L132.274 43.7127C135.386 38.2676 142.325 36.4318 147.77 39.5433C153.215 42.6548 155.051 49.5935 151.939 55.0386L103.368 139.112H138.497C149.886 139.112 156.264 152.491 151.317 161.763H48.3259C42.0406 161.763 37 156.723 37 150.437C37 144.152 42.0406 139.112 48.3259 139.112H77.2007L114.165 75.0456L102.622 55.0075C99.5102 49.5624 101.346 42.6859 106.791 39.5122C112.236 36.4007 119.113 38.2365 122.286 43.6816L127.234 52.425ZM83.5482 173.432L72.6579 192.318C69.5464 197.764 62.6077 199.599 57.1626 196.488C51.7174 193.376 49.8816 186.438 52.9932 180.992L61.0831 166.991C70.2309 164.159 77.6674 166.337 83.5482 173.432ZM177.329 139.174H206.795C213.08 139.174 218.121 144.214 218.121 150.5C218.121 156.785 213.08 161.826 206.795 161.826H190.428L201.474 180.992C204.586 186.438 202.75 193.314 197.305 196.488C191.86 199.599 184.983 197.764 181.81 192.318C163.203 160.052 149.232 135.907 139.96 119.82C130.47 103.454 137.253 87.0249 143.943 81.4553C151.379 94.2125 162.487 113.473 177.329 139.174Z" fill="white"/>
<defs>
<linearGradient id="paint0_linear_942_43085" x1="128" y1="0" x2="128" y2="256" gradientUnits="userSpaceOnUse">
<stop stop-color="#18BFFB"/>
<stop offset="1" stop-color="#2072F3"/>
</linearGradient>
</defs>
</svg>
