<svg width="720" height="720" viewBox="0 0 720 720" fill="none" xmlns="http://www.w3.org/2000/svg">
<path fill-rule="evenodd" clip-rule="evenodd" d="M717.85 399.368C715.585 400.567 712.863 400.908 710.206 400.102L710.152 400.087C707.678 399.391 628.719 377.177 533.115 406.83C532.126 407.131 531.098 407.271 530.109 407.271C525.811 407.271 521.816 404.527 520.505 400.262C518.83 394.976 521.796 389.369 527.123 387.707C627.341 356.649 708.955 378.896 715.683 380.841C708.981 327.053 701.044 296.444 682.826 260.283C682.826 260.283 743.356 80.0635 703.003 5.97316C689.404 -18.9772 553.615 39.7744 501.237 80.0635C501.237 80.0635 420.53 60.0791 360 60.0791C299.47 60.0791 218.763 80.0635 218.763 80.0635C166.385 39.7744 30.596 -18.9772 16.997 5.97316C-23.3564 80.0635 37.1736 260.283 37.1736 260.283C18.956 296.443 11.0189 327.053 4.31755 380.84C11.0527 378.894 92.663 356.651 192.876 387.707C198.203 389.369 201.169 394.976 199.494 400.262C198.163 404.527 194.188 407.271 189.89 407.271C188.901 407.271 187.872 407.131 186.884 406.83C91.2795 377.177 12.3194 399.391 9.84687 400.087L9.79336 400.102C7.13623 400.908 4.41433 400.567 2.15014 399.368C-1.40122 431.629 -0.141973 460.934 2.94603 484.552C3.44607 483.906 4.03436 483.31 4.70884 482.783C7.97746 480.24 85.819 420.307 219.55 430.619C225.098 431.02 229.255 435.846 228.831 441.352C228.407 446.859 223.646 451.385 217.996 450.564C92.2352 441.072 17.9447 497.941 17.2184 498.522C15.3419 499.944 13.1427 500.645 10.9636 500.645C8.90175 500.645 6.85914 500.024 5.13465 498.816C8.89217 520.043 13.8618 534.91 16.997 540.625C24.8658 554.962 64.7551 601.199 117.88 640.747C189.193 693.828 292.012 715.64 342.82 719.999C300.686 713.41 276.638 682.577 270.677 648.313C192.192 624.304 155.492 571.592 146.977 543.301C135.738 505.895 138.058 480.584 157.771 484.409C161.855 485.206 168.597 487.227 177.617 489.931C212.136 500.281 280.019 520.633 360.002 520.633C439.984 520.633 507.867 500.281 542.386 489.931C551.406 487.227 558.148 485.206 562.232 484.409C581.945 480.584 584.265 505.895 573.027 543.301C564.511 571.593 527.809 624.308 449.318 648.315C443.355 682.58 419.305 713.413 377.169 720C427.973 715.644 530.802 693.832 602.12 640.747C655.245 601.199 695.134 554.962 703.003 540.625C706.138 534.91 711.108 520.042 714.866 498.815C713.141 500.024 711.098 500.645 709.035 500.645C706.856 500.645 704.657 499.944 702.781 498.522C702.054 497.941 627.764 441.072 502.003 450.564C496.353 451.385 491.592 446.859 491.168 441.352C490.744 435.846 494.901 431.02 500.449 430.619C634.18 420.307 712.022 480.24 715.29 482.783C715.965 483.311 716.554 483.906 717.054 484.553C720.142 460.935 721.401 431.629 717.85 399.368ZM37.1755 60.042C46.1944 33.1692 150.972 80.0664 171.148 100.091C171.148 100.091 162.212 105.825 149.265 115.523C122.93 104.213 96.3711 99.0434 96.3711 112.233C96.3711 119.31 99.0572 136.39 103.421 154.635C83.5512 174.258 65.0736 197.248 57.3521 220.237C57.3521 220.237 16.9988 120.115 37.1755 60.042ZM682.828 60.042C673.809 33.1692 569.032 80.0664 548.855 100.091C548.855 100.091 557.791 105.825 570.737 115.521C597.07 104.212 623.627 99.044 623.627 112.233C623.627 119.309 620.942 136.387 616.578 154.631C636.45 174.254 654.93 197.246 662.652 220.237C662.652 220.237 703.005 120.115 682.828 60.042ZM244.652 246.861L244.671 246.868L244.688 246.875C267.626 255.664 296.162 266.599 296.142 294.707C296.142 319.477 280.686 337.639 254.538 343.947L254.638 353.919C254.638 364.272 246.144 372.702 235.693 372.702C225.241 372.702 216.747 364.292 216.747 353.919V344.507C192.01 339.742 173.226 326.185 173.226 312.589C173.226 303.337 180.005 296.088 188.681 296.088C194.653 296.088 199.657 299.553 204.943 303.217L204.999 303.255C212.652 308.532 221.323 314.511 236.419 314.511C251.41 314.511 260.691 306.581 260.691 299.252C260.691 289.226 245.132 282.799 228.658 275.995L228.631 275.984C205.609 266.492 179.521 255.719 179.521 229.467C179.521 208.221 193.665 191.381 216.747 184.713V176.182C216.747 165.81 225.241 157.379 235.693 157.379C246.144 157.379 254.638 165.81 254.638 176.182V184.052C273.927 188.417 292.127 198.83 292.127 213.568C292.127 220.957 286.941 228.906 275.562 228.906C269.448 228.906 265.05 225.622 260.812 222.439C255.284 218.294 249.009 213.608 236.399 213.608C232.827 213.608 214.991 214.289 214.991 227.485C214.991 235.491 229.406 241.017 244.652 246.861ZM535.417 295.047C535.417 266.94 506.88 256.005 483.942 247.215L483.926 247.209C468.672 241.362 454.266 235.835 454.266 227.825C454.266 214.629 472.102 213.948 475.674 213.948C488.267 213.948 494.521 218.621 500.064 222.762L500.087 222.779L500.114 222.799C504.363 225.977 508.736 229.247 514.816 229.247C526.216 229.247 531.402 221.297 531.402 213.908C531.402 199.15 513.202 188.758 493.913 184.392V176.543C493.913 166.17 485.399 157.74 474.967 157.74C464.516 157.74 456.001 166.17 456.001 176.543V185.073C432.939 191.741 418.775 208.582 418.775 229.828C418.775 256.08 444.864 266.853 467.885 276.344L467.912 276.355C484.387 283.16 499.946 289.586 499.946 299.613C499.946 306.942 490.685 314.871 475.694 314.871C460.575 314.871 451.901 308.875 444.259 303.592L444.238 303.578L444.205 303.554C438.911 299.898 433.915 296.449 427.976 296.449C419.28 296.449 412.501 303.698 412.501 312.949C412.501 326.546 431.285 340.102 456.001 344.868V354.279C456.001 364.632 464.536 373.062 474.988 373.062C485.439 373.062 493.913 364.632 493.913 354.279L493.853 344.307C519.982 337.959 535.417 319.817 535.417 295.047ZM359.998 390.476C420.528 390.476 420.528 400.488 420.528 420.513C420.528 440.537 390.263 480.586 359.998 480.586C329.733 480.586 299.468 440.537 299.468 420.513V420.493C299.468 400.481 299.468 390.476 359.998 390.476Z" fill="url(#paint0_linear_5222_14482)"/>
<path d="M367.303 612.774C384.07 619.202 404.937 627.207 404.937 647.752C404.937 665.849 393.648 679.125 374.536 683.766L374.582 691.065C374.582 698.634 368.377 704.792 360.735 704.792C353.078 704.792 346.859 698.634 346.859 691.065V684.171C328.776 680.687 315.05 670.79 315.05 660.833C315.05 654.075 320.029 648.758 326.369 648.758C330.726 648.758 334.387 651.294 338.244 653.966L338.248 653.97C343.847 657.859 350.188 662.245 361.25 662.245C372.221 662.245 379 656.448 379 651.086C379 643.757 367.621 639.056 355.56 634.085C338.733 627.147 319.651 619.262 319.651 600.069C319.651 584.54 330.001 572.21 346.874 567.344V561.111C346.874 553.527 353.093 547.355 360.735 547.355C368.377 547.355 374.597 553.527 374.597 561.111V566.863C388.715 570.062 402.017 577.677 402.017 588.445C402.017 593.836 398.218 599.663 389.896 599.663C385.432 599.663 382.208 597.26 379.106 594.933L379.06 594.898C375.016 591.888 370.43 588.475 361.25 588.475C358.632 588.475 345.603 588.955 345.603 598.612C345.603 604.454 356.15 608.509 367.303 612.774Z" fill="url(#paint1_linear_5222_14482)"/>
<defs>
<linearGradient id="paint0_linear_5222_14482" x1="360" y1="0" x2="360" y2="720" gradientUnits="userSpaceOnUse">
<stop stop-color="#F2545B"/>
<stop offset="1" stop-color="#F22730"/>
</linearGradient>
<linearGradient id="paint1_linear_5222_14482" x1="360" y1="0" x2="360" y2="720" gradientUnits="userSpaceOnUse">
<stop stop-color="#F2545B"/>
<stop offset="1" stop-color="#F22730"/>
</linearGradient>
</defs>
</svg>
