<svg width="512" height="512" viewBox="0 0 512 512" fill="none" xmlns="http://www.w3.org/2000/svg">
<rect width="512" height="512" rx="113.778" fill="url(#paint0_linear_1268_1393)"/>
<path fill-rule="evenodd" clip-rule="evenodd" d="M433.782 275.44C432.66 276.039 431.311 276.21 429.994 275.807L429.967 275.8C428.741 275.452 389.607 264.359 342.224 279.167C341.734 279.317 341.224 279.387 340.734 279.387C338.604 279.387 336.624 278.017 335.974 275.887C335.144 273.247 336.614 270.447 339.254 269.617C388.924 254.107 429.374 265.217 432.708 266.188C429.387 239.327 425.453 224.041 416.424 205.983C416.424 205.983 446.424 115.983 426.424 78.9829C419.684 66.5229 352.384 95.8629 326.424 115.983C326.424 115.983 286.424 106.003 256.424 106.003C226.424 106.003 186.424 115.983 186.424 115.983C160.464 95.8629 93.1641 66.5229 86.4241 78.9829C66.4241 115.983 96.4241 205.983 96.4241 205.983C87.395 224.041 83.4612 239.327 80.1399 266.188C83.478 265.216 123.926 254.108 173.594 269.617C176.234 270.447 177.704 273.247 176.874 275.887C176.214 278.017 174.244 279.387 172.114 279.387C171.624 279.387 171.114 279.317 170.624 279.167C123.24 264.359 84.1058 275.452 82.8803 275.8L82.8538 275.807C81.5369 276.21 80.1878 276.039 79.0657 275.441C77.3055 291.551 77.9296 306.186 79.4601 317.98C79.7079 317.658 79.9995 317.361 80.3338 317.097C81.9538 315.827 120.534 285.897 186.814 291.047C189.564 291.247 191.624 293.657 191.414 296.407C191.204 299.157 188.844 301.417 186.044 301.007C123.714 296.267 86.8938 324.667 86.5338 324.957C85.6038 325.667 84.5138 326.017 83.4338 326.017C82.4119 326.017 81.3995 325.707 80.5448 325.104C82.4072 335.704 84.8702 343.129 86.4241 345.983C90.3241 353.143 110.094 376.233 136.424 395.983C171.768 422.491 222.728 433.384 247.909 435.561C227.027 432.27 215.108 416.872 212.153 399.761C173.254 387.771 155.065 361.447 150.845 347.319C145.275 328.639 146.425 315.999 156.195 317.909C158.219 318.307 161.56 319.316 166.031 320.667C183.139 325.835 216.784 335.999 256.425 335.999C296.066 335.999 329.71 325.835 346.819 320.667C351.289 319.316 354.631 318.307 356.655 317.909C366.425 315.999 367.575 328.639 362.005 347.319C357.784 361.448 339.594 387.773 300.692 399.763C297.737 416.874 285.817 432.272 264.933 435.561C290.113 433.386 341.077 422.493 376.424 395.983C402.754 376.233 422.524 353.143 426.424 345.983C427.978 343.129 430.441 335.704 432.303 325.104C431.449 325.707 430.436 326.017 429.414 326.017C428.334 326.017 427.244 325.667 426.314 324.957C425.954 324.667 389.134 296.267 326.804 301.007C324.004 301.417 321.644 299.157 321.434 296.407C321.224 293.657 323.284 291.247 326.034 291.047C392.314 285.897 430.894 315.827 432.514 317.097C432.848 317.361 433.14 317.658 433.388 317.981C434.918 306.187 435.543 291.551 433.782 275.44ZM96.425 105.984C100.895 92.5644 152.825 115.984 162.825 125.984C162.825 125.984 158.396 128.848 151.979 133.691C138.927 128.043 125.764 125.461 125.764 132.048C125.764 135.582 127.095 144.112 129.258 153.223C119.41 163.023 110.252 174.504 106.425 185.984C106.425 185.984 86.425 135.984 96.425 105.984ZM416.425 105.984C411.955 92.5644 360.025 115.984 350.025 125.984C350.025 125.984 354.454 128.848 360.87 133.69C373.921 128.043 387.084 125.462 387.084 132.048C387.084 135.582 385.753 144.11 383.59 153.221C393.439 163.021 402.598 174.503 406.425 185.984C406.425 185.984 426.425 135.984 416.425 105.984ZM199.255 199.28L199.264 199.284L199.273 199.287C210.641 203.676 224.784 209.137 224.774 223.174C224.774 235.544 217.114 244.614 204.154 247.764L204.204 252.744C204.204 257.914 199.994 262.124 194.814 262.124C189.634 262.124 185.424 257.924 185.424 252.744V248.044C173.164 245.664 163.854 238.894 163.854 232.104C163.854 227.484 167.214 223.864 171.514 223.864C174.474 223.864 176.954 225.594 179.574 227.424L179.602 227.443C183.395 230.078 187.693 233.064 195.174 233.064C202.604 233.064 207.204 229.104 207.204 225.444C207.204 220.436 199.493 217.227 191.328 213.829L191.314 213.824C179.904 209.084 166.974 203.704 166.974 190.594C166.974 179.984 173.984 171.574 185.424 168.244V163.984C185.424 158.804 189.634 154.594 194.814 154.594C199.994 154.594 204.204 158.804 204.204 163.984V167.914C213.764 170.094 222.784 175.294 222.784 182.654C222.784 186.344 220.214 190.314 214.574 190.314C211.544 190.314 209.364 188.674 207.264 187.084C204.524 185.014 201.414 182.674 195.164 182.674C193.394 182.674 184.554 183.014 184.554 189.604C184.554 193.602 191.699 196.361 199.255 199.28ZM343.365 223.344C343.365 209.307 329.221 203.846 317.853 199.457L317.844 199.454C310.285 196.534 303.145 193.774 303.145 189.774C303.145 183.184 311.984 182.844 313.754 182.844C319.996 182.844 323.096 185.177 325.843 187.245L325.854 187.254L325.868 187.264C327.974 188.851 330.141 190.484 333.154 190.484C338.805 190.484 341.375 186.514 341.375 182.824C341.375 175.454 332.354 170.264 322.794 168.084V164.164C322.794 158.984 318.574 154.774 313.404 154.774C308.224 154.774 304.004 158.984 304.004 164.164V168.424C292.574 171.754 285.554 180.164 285.554 190.774C285.554 203.884 298.484 209.264 309.895 214.004L309.908 214.009C318.073 217.407 325.785 220.616 325.785 225.624C325.785 229.284 321.194 233.244 313.764 233.244C306.271 233.244 301.972 230.249 298.185 227.611L298.174 227.604L298.158 227.592C295.534 225.766 293.058 224.044 290.114 224.044C285.804 224.044 282.444 227.664 282.444 232.284C282.444 239.074 291.754 245.844 304.004 248.224V252.924C304.004 258.094 308.234 262.304 313.414 262.304C318.594 262.304 322.794 258.094 322.794 252.924L322.764 247.944C335.715 244.774 343.365 235.714 343.365 223.344ZM256.423 271C286.423 271 286.423 276 286.423 286C286.423 296 271.423 316 256.423 316C241.423 316 226.423 296 226.423 286V285.99C226.423 275.997 226.423 271 256.423 271Z" fill="white"/>
<path d="M260.044 382.014C268.354 385.224 278.696 389.221 278.696 399.481C278.696 408.519 273.101 415.149 263.629 417.466L263.651 421.111C263.651 424.891 260.576 427.966 256.788 427.966C252.993 427.966 249.911 424.891 249.911 421.111V417.669C240.949 415.929 234.146 410.986 234.146 406.014C234.146 402.639 236.613 399.984 239.756 399.984C241.915 399.984 243.73 401.25 245.641 402.585L245.643 402.586C248.419 404.529 251.561 406.719 257.044 406.719C262.481 406.719 265.841 403.824 265.841 401.146C265.841 397.486 260.201 395.139 254.224 392.656C245.883 389.191 236.426 385.254 236.426 375.669C236.426 367.914 241.556 361.756 249.918 359.326V356.214C249.918 352.426 253.001 349.344 256.788 349.344C260.576 349.344 263.659 352.426 263.659 356.214V359.086C270.656 360.684 277.249 364.486 277.249 369.864C277.249 372.556 275.366 375.466 271.241 375.466C269.029 375.466 267.431 374.266 265.894 373.104L265.871 373.087C263.866 371.583 261.594 369.879 257.044 369.879C255.746 369.879 249.288 370.119 249.288 374.941C249.288 377.859 254.516 379.884 260.044 382.014Z" fill="white"/>
<defs>
<linearGradient id="paint0_linear_1268_1393" x1="256" y1="0" x2="256" y2="512" gradientUnits="userSpaceOnUse">
<stop stop-color="#F2545B"/>
<stop offset="1" stop-color="#F22730"/>
</linearGradient>
</defs>
</svg>
