<svg width="256" height="256" viewBox="0 0 256 256" fill="none" xmlns="http://www.w3.org/2000/svg">
<rect width="256" height="256" fill="#635BFF"/>
<path fill-rule="evenodd" clip-rule="evenodd" d="M116.484 95.6483C116.484 88.7912 122.11 86.1539 131.429 86.1539C144.791 86.1539 161.67 90.1978 175.033 97.4066V56.0879C160.44 50.2857 146.022 48 131.429 48C95.7363 48 72 66.6374 72 97.7582C72 146.286 138.813 138.549 138.813 159.473C138.813 167.56 131.78 170.198 121.934 170.198C107.341 170.198 88.7033 164.22 73.9341 156.132V197.978C90.2857 205.011 106.813 208 121.934 208C158.505 208 183.648 189.89 183.648 158.418C183.473 106.022 116.484 115.341 116.484 95.6483Z" fill="white"/>
</svg>
