<svg width="720" height="720" viewBox="0 0 720 720" fill="none" xmlns="http://www.w3.org/2000/svg">
<mask id="mask0_5223_14497" style="mask-type:alpha" maskUnits="userSpaceOnUse" x="0" y="0" width="720" height="720">
<path fill-rule="evenodd" clip-rule="evenodd" d="M700.683 5.96588C687.174 -18.9541 552.287 39.7259 500.256 79.9659C500.256 79.9659 420.085 60.0059 359.957 60.0059C299.829 60.0059 219.658 79.9659 219.658 79.9659C167.627 39.7259 32.7392 -18.9541 19.2304 5.96588C-20.855 79.9659 39.2732 259.966 39.2732 259.966C21.2748 295.886 13.398 326.526 6.74383 379.706C10.5963 378.65 14.7697 377.813 19.4063 377.269C46.8177 371.576 114.395 362.366 193.964 387.166C199.256 388.826 202.202 394.446 200.538 399.706C199.196 403.986 195.247 406.726 190.978 406.726C189.996 406.726 188.974 406.606 187.992 406.286C148.054 393.821 111.136 390.594 81.4509 391.005C97.8466 401.139 112.444 416.171 125.064 434.694C152.567 429.702 184.373 427.229 220.441 430.026C225.953 430.426 230.061 435.246 229.661 440.746C229.24 446.266 224.51 450.766 218.898 449.946C188.179 447.608 160.581 449.323 136.385 453.176C169.355 512.925 185.177 598.363 179.452 675.066C250.544 707.986 329.051 719.966 359.957 719.966C391.003 719.966 470.132 707.866 541.504 674.566C535.879 598.049 551.671 512.923 584.517 453.31C560.089 449.342 532.143 447.59 501.039 449.946C495.427 450.766 490.697 446.246 490.276 440.746C489.855 435.246 493.984 430.426 499.496 430.026C535.954 427.209 568.073 429.761 595.792 434.87C608.439 416.266 623.077 401.171 639.525 391.004C609.679 390.494 572.342 393.662 531.945 406.286C530.963 406.586 529.941 406.726 528.959 406.726C524.689 406.726 520.741 403.986 519.398 399.706C517.735 394.426 520.681 388.826 525.972 387.166C604.73 362.616 671.74 371.4 699.668 377.093C704.615 377.595 709.037 378.427 713.13 379.466C706.496 326.426 698.619 295.826 680.64 259.966C680.64 259.966 740.769 79.9659 700.683 5.96588ZM39.2775 59.9688C48.2366 33.1288 152.318 79.9688 172.361 99.9688C172.361 99.9688 163.484 105.696 150.623 115.382C124.463 104.086 98.0802 98.9227 98.0802 112.097C98.0802 119.164 100.748 136.223 105.084 154.447C85.3454 174.045 66.9905 197.007 59.3202 219.969C59.3202 219.969 19.2348 119.969 39.2775 59.9688ZM680.645 59.9688C671.686 33.1288 567.604 79.9688 547.561 99.9688C547.561 99.9688 556.438 105.696 569.297 115.381C595.456 104.085 621.837 98.9233 621.837 112.097C621.837 119.164 619.169 136.221 614.834 154.442C634.574 174.042 652.931 197.005 660.602 219.969C660.602 219.969 700.687 119.969 680.645 59.9688ZM497.762 217.924C521.73 222.622 551.546 228.465 556.432 256.112C560.737 280.476 548.79 300.978 524.333 311.719L526.125 321.517C527.924 331.7 521.1 341.451 510.875 343.25C500.651 345.049 490.836 338.226 489.037 328.043L487.401 318.786C462.393 318.352 441.661 308.251 439.298 294.878C437.69 285.778 443.062 277.481 451.569 275.984C457.38 274.962 462.866 277.495 468.68 280.18L468.74 280.207C477.134 284.088 486.662 288.494 501.452 285.891C516.117 283.311 523.799 273.917 522.525 266.708C520.783 256.846 504.444 253.203 487.145 249.346L487.117 249.34C462.946 243.966 435.552 237.861 430.989 212.039C427.297 191.141 438.226 172.139 459.628 161.61L458.145 153.22C456.342 143.017 463.206 133.259 473.431 131.46C483.636 129.665 493.43 136.491 495.233 146.694L496.597 154.415C516.226 155.389 535.836 162.478 538.401 176.994C539.685 184.262 535.994 192.974 524.842 194.936C518.894 195.983 514.048 193.519 509.339 191.125L509.284 191.097C503.142 187.978 496.21 184.458 483.891 186.626C480.397 187.241 463.067 190.981 465.361 203.96C466.753 211.839 481.807 214.795 497.745 217.921L497.762 217.924ZM241.509 221.364C227.609 212.991 214.468 205.075 215.86 197.2C218.153 184.22 235.72 186.621 239.214 187.235C251.55 189.406 256.875 195.095 261.562 200.124C265.154 203.985 268.886 207.972 274.867 209.024C285.999 210.983 292.454 204.056 293.738 196.788C296.3 182.292 280.305 168.917 262.194 161.303L263.562 153.563C265.365 143.36 258.521 133.606 248.296 131.807C238.072 130.008 228.297 136.838 226.494 147.04L225.011 155.431C201.272 158.017 184.508 172.147 180.815 193.044C176.253 218.866 199.902 233.953 220.773 247.252L220.798 247.267C235.732 256.796 249.836 265.795 248.093 275.657C246.819 282.866 236.362 289.068 221.696 286.488C206.928 283.889 199.485 276.516 192.915 270.008L192.867 269.961C188.333 265.447 184.04 261.178 178.197 260.15C169.71 258.657 161.818 264.62 160.21 273.719C157.847 287.093 173.867 303.661 197.238 312.606L195.602 321.864C193.799 332.066 200.647 341.801 210.872 343.6C221.096 345.399 230.871 338.569 232.67 328.386L234.305 318.56C260.982 316.856 279.258 301.652 283.563 277.288C288.468 249.645 262.453 233.977 241.541 221.384L241.509 221.364ZM420.085 330C420.085 310 420.085 300 359.957 300C299.829 300 299.829 309.993 299.829 329.98V330C299.829 350 329.893 390 359.957 390C390.021 390 420.085 350 420.085 330ZM279.786 500C279.786 455.82 315.682 420 359.957 420C404.231 420 440.128 455.82 440.128 500V620C440.128 664.18 404.231 700 359.957 700C315.682 700 279.786 664.18 279.786 620V500Z" fill="white"/>
<path d="M692.589 380C701.929 380 709.485 381.32 715.778 383.66C724.771 406.202 717.862 443.478 709.35 489.403C697.26 554.634 681.935 637.314 704.354 720H574.878C550.987 580.04 599.571 380 692.589 380Z" fill="white"/>
<path d="M4.22136 383.66C10.4947 381.32 18.0308 380 27.3306 380C120.309 380 168.912 580.8 145.062 720H15.5856C37.9661 637.964 22.7211 555.434 10.6598 490.138C2.15513 444.098 -4.76657 406.626 4.20132 383.94L4.22136 383.66Z" fill="white"/>
</mask>
<g mask="url(#mask0_5223_14497)">
<path d="M0 0H720V120H0V0Z" fill="#61BB46"/>
<path d="M0 120H720V240H0V120Z" fill="#FDB827"/>
<path d="M0 240H720V360H0V240Z" fill="#F5821F"/>
<path d="M0 360H720V480H0V360Z" fill="#E03A3E"/>
<path d="M0 480H720V600H0V480Z" fill="#963D97"/>
<path d="M0 600H720V720H0V600Z" fill="#009DDC"/>
</g>
</svg>
